<svg width="16" height="12" viewBox="0 0 16 12" fill="none" xmlns="http://www.w3.org/2000/svg">
<path d="M0.750094 4.9375L7.75009 8.9375C7.82566 8.98069 7.91118 9.00341 7.99822 9.00341C8.08525 9.00341 8.17078 8.98069 8.24634 8.9375L15.2463 4.9375C15.323 4.8938 15.3867 4.8306 15.431 4.75431C15.4754 4.67802 15.4987 4.59136 15.4987 4.50312C15.4987 4.41489 15.4754 4.32823 15.431 4.25194C15.3867 4.17565 15.323 4.11245 15.2463 4.06875L8.24634 0.0687499C8.17078 0.0255587 8.08525 0.0028398 7.99822 0.0028398C7.91118 0.0028398 7.82566 0.0255587 7.75009 0.0687499L0.750094 4.06875C0.673442 4.11245 0.609718 4.17565 0.565392 4.25194C0.521067 4.32823 0.497719 4.41489 0.497719 4.50312C0.497719 4.59136 0.521067 4.67802 0.565392 4.75431C0.609718 4.8306 0.673442 4.8938 0.750094 4.9375ZM8.00009 1.07562L13.992 4.5L8.00009 7.92437L2.00822 4.5L8.00009 1.07562ZM15.4338 6.75C15.4673 6.8071 15.4892 6.87028 15.4981 6.93588C15.507 7.00148 15.5027 7.0682 15.4856 7.13215C15.4686 7.19611 15.4389 7.25603 15.3985 7.30845C15.3581 7.36087 15.3076 7.40473 15.2501 7.4375L8.25009 11.4375C8.17453 11.4807 8.089 11.5034 8.00197 11.5034C7.91493 11.5034 7.82941 11.4807 7.75384 11.4375L0.750094 7.4375C0.692846 7.40467 0.642624 7.36088 0.602298 7.30865C0.561971 7.25641 0.532329 7.19674 0.515063 7.13304C0.497797 7.06935 0.493246 7.00287 0.501669 6.93742C0.510093 6.87196 0.531326 6.80881 0.564156 6.75156C0.596987 6.69431 0.640772 6.64409 0.693011 6.60377C0.74525 6.56344 0.804921 6.5338 0.868616 6.51653C0.997254 6.48166 1.13448 6.49932 1.25009 6.56562L8.00009 10.4244L14.7501 6.56562C14.8071 6.53274 14.87 6.51141 14.9352 6.50288C15.0004 6.49435 15.0667 6.49877 15.1302 6.5159C15.1938 6.53303 15.2533 6.56252 15.3054 6.6027C15.3575 6.64287 15.4011 6.69292 15.4338 6.75Z" fill="#424242"/>
</svg>
